<?xml version="1.0" standalone="no"?>
<!DOCTYPE svg PUBLIC "-//W3C//DTD SVG 20010904//EN"
 "http://www.w3.org/TR/2001/REC-SVG-20010904/DTD/svg10.dtd">
<svg version="1.0" xmlns="http://www.w3.org/2000/svg"
 width="535.000000pt" height="535.000000pt" viewBox="0 0 535.000000 535.000000"
 preserveAspectRatio="xMidYMid meet">

<g transform="translate(0.000000,535.000000) scale(0.100000,-0.100000)"
fill="#000000" stroke="none">
<path d="M2340 5284 c-165 -28 -315 -63 -410 -94 -648 -214 -1062 -775 -1111
-1509 -11 -161 1 -573 21 -711 5 -37 5 -66 1 -68 -5 -2 -30 -17 -55 -34 -60
-39 -108 -98 -146 -180 -71 -152 -46 -382 70 -632 68 -149 209 -333 417 -547
l133 -136 54 -134 c224 -556 364 -781 597 -956 134 -101 338 -189 504 -218
142 -24 481 -21 590 6 402 100 663 323 872 746 77 156 78 158 168 382 l65 164
103 106 c306 318 462 542 553 796 25 69 29 95 29 185 0 97 -3 111 -34 183 -52
122 -104 185 -214 260 -18 12 -18 22 -7 172 18 237 16 666 -4 793 -63 409
-271 797 -554 1033 -222 185 -446 290 -772 361 l-145 32 -350 2 c-192 1 -361
0 -375 -2z m-110 -599 c170 -95 274 -119 530 -119 151 0 203 4 282 21 110 24
200 61 240 100 l28 27 96 -12 c307 -36 408 -204 544 -912 88 -462 117 -565
196 -706 18 -34 53 -86 77 -116 24 -29 53 -71 65 -93 29 -56 90 -111 140 -126
97 -28 172 -138 180 -263 6 -90 -17 -175 -80 -301 -89 -179 -212 -338 -433
-563 -71 -74 -133 -139 -137 -145 -3 -7 -35 -84 -71 -172 -94 -231 -105 -256
-178 -405 -86 -173 -150 -269 -241 -365 -88 -94 -167 -151 -279 -204 -250
-119 -567 -142 -848 -60 -246 71 -423 208 -577 449 -47 74 -163 307 -202 405
-11 28 -46 116 -79 197 l-60 146 -141 149 c-227 238 -332 373 -402 513 -54
107 -89 228 -97 329 -5 81 -4 92 21 148 33 72 86 126 141 143 49 15 109 70
141 130 14 25 46 71 73 102 55 67 119 190 155 300 13 42 54 228 91 415 37 186
75 374 87 418 49 197 115 365 171 437 57 72 160 127 275 148 66 12 261 2 292
-15z"/>
<path d="M1787 3035 c-181 -30 -491 -153 -503 -200 -3 -13 -4 -71 -2 -129 l3
-106 37 -30 c31 -26 42 -46 64 -116 80 -265 189 -417 357 -499 185 -90 374
-93 545 -10 173 86 291 259 353 521 l20 87 -24 26 c-68 71 -18 131 108 131 95
0 139 -22 143 -70 2 -28 -3 -41 -23 -60 -31 -29 -31 -43 0 -166 38 -149 119
-306 198 -386 115 -115 277 -175 442 -165 282 18 480 183 591 492 44 124 55
143 98 182 l36 31 0 119 c0 65 -4 123 -8 130 -10 16 -171 91 -292 136 -148 55
-244 72 -400 71 -194 -1 -370 -48 -525 -141 -58 -34 -62 -35 -125 -27 -70 8
-168 10 -266 4 -50 -4 -65 0 -92 18 -63 45 -220 112 -322 137 -133 32 -291 40
-413 20z m354 -111 c207 -46 337 -167 370 -349 20 -108 -8 -261 -67 -361 -39
-66 -136 -152 -211 -186 -58 -26 -83 -32 -168 -36 -89 -4 -109 -1 -178 22 -42
14 -96 38 -119 52 -111 70 -203 205 -228 332 -7 34 -10 101 -8 149 4 71 10 99
34 148 31 64 114 154 166 181 118 62 267 79 409 48z m1475 -15 c66 -12 158
-54 214 -99 113 -90 170 -267 136 -427 -50 -243 -258 -413 -502 -413 -139 0
-250 47 -342 143 -176 187 -188 496 -24 663 111 112 328 168 518 133z"/>
</g>
</svg>
